<mxfile host="app.diagrams.net" agent="Mozilla/5.0 (Windows NT 10.0; Win64; x64; rv:133.0) Gecko/20100101 Firefox/133.0" version="25.0.3">
  <diagram name="Page-1" id="oXZaO1_G9uTrE9Wvl2xW">
    <mxGraphModel dx="2071" dy="626" grid="1" gridSize="10" guides="1" tooltips="1" connect="1" arrows="1" fold="1" page="1" pageScale="1" pageWidth="850" pageHeight="1100" math="0" shadow="0">
      <root>
        <mxCell id="0" />
        <mxCell id="1" parent="0" />
        <mxCell id="qfL54Y1ILqcxZ4xktZsr-6" style="edgeStyle=orthogonalEdgeStyle;rounded=0;orthogonalLoop=1;jettySize=auto;html=1;entryX=1;entryY=0.5;entryDx=0;entryDy=0;" parent="1" source="qfL54Y1ILqcxZ4xktZsr-1" target="qfL54Y1ILqcxZ4xktZsr-2" edge="1">
          <mxGeometry relative="1" as="geometry" />
        </mxCell>
        <mxCell id="qfL54Y1ILqcxZ4xktZsr-16" value="&lt;div&gt;if&lt;/div&gt;&lt;div&gt;math.random == 1&lt;/div&gt;" style="edgeLabel;html=1;align=center;verticalAlign=middle;resizable=0;points=[];" parent="qfL54Y1ILqcxZ4xktZsr-6" vertex="1" connectable="0">
          <mxGeometry x="0.04" y="1" relative="1" as="geometry">
            <mxPoint y="-1" as="offset" />
          </mxGeometry>
        </mxCell>
        <mxCell id="qfL54Y1ILqcxZ4xktZsr-9" style="edgeStyle=orthogonalEdgeStyle;rounded=0;orthogonalLoop=1;jettySize=auto;html=1;entryX=0;entryY=0.5;entryDx=0;entryDy=0;" parent="1" source="qfL54Y1ILqcxZ4xktZsr-1" target="qfL54Y1ILqcxZ4xktZsr-4" edge="1">
          <mxGeometry relative="1" as="geometry" />
        </mxCell>
        <mxCell id="aih6IESTXk3G10kJZKyZ-2" style="edgeStyle=orthogonalEdgeStyle;rounded=0;orthogonalLoop=1;jettySize=auto;html=1;entryX=0.5;entryY=1;entryDx=0;entryDy=0;" parent="1" source="qfL54Y1ILqcxZ4xktZsr-1" target="aih6IESTXk3G10kJZKyZ-1" edge="1">
          <mxGeometry relative="1" as="geometry" />
        </mxCell>
        <mxCell id="aih6IESTXk3G10kJZKyZ-6" value="&lt;div&gt;if&lt;/div&gt;&lt;div&gt;math.random == 3&lt;br&gt;&lt;/div&gt;" style="edgeLabel;html=1;align=center;verticalAlign=middle;resizable=0;points=[];" parent="aih6IESTXk3G10kJZKyZ-2" vertex="1" connectable="0">
          <mxGeometry relative="1" as="geometry">
            <mxPoint as="offset" />
          </mxGeometry>
        </mxCell>
        <mxCell id="qfL54Y1ILqcxZ4xktZsr-1" value="Idle" style="rounded=0;whiteSpace=wrap;html=1;" parent="1" vertex="1">
          <mxGeometry x="360" y="370" width="120" height="60" as="geometry" />
        </mxCell>
        <mxCell id="qfL54Y1ILqcxZ4xktZsr-7" style="edgeStyle=orthogonalEdgeStyle;rounded=0;orthogonalLoop=1;jettySize=auto;html=1;entryX=1;entryY=0.5;entryDx=0;entryDy=0;" parent="1" source="qfL54Y1ILqcxZ4xktZsr-2" target="qfL54Y1ILqcxZ4xktZsr-3" edge="1">
          <mxGeometry relative="1" as="geometry" />
        </mxCell>
        <mxCell id="qfL54Y1ILqcxZ4xktZsr-14" value="&lt;div&gt;If boss at&lt;/div&gt;&lt;div&gt;&amp;nbsp;right pos&lt;/div&gt;" style="edgeLabel;html=1;align=center;verticalAlign=middle;resizable=0;points=[];" parent="qfL54Y1ILqcxZ4xktZsr-7" vertex="1" connectable="0">
          <mxGeometry x="0.1" y="5" relative="1" as="geometry">
            <mxPoint x="5" y="-5" as="offset" />
          </mxGeometry>
        </mxCell>
        <mxCell id="qfL54Y1ILqcxZ4xktZsr-2" value="StartFireUp" style="rounded=0;whiteSpace=wrap;html=1;" parent="1" vertex="1">
          <mxGeometry x="110" y="370" width="120" height="60" as="geometry" />
        </mxCell>
        <mxCell id="qfL54Y1ILqcxZ4xktZsr-12" style="edgeStyle=orthogonalEdgeStyle;rounded=0;orthogonalLoop=1;jettySize=auto;html=1;entryX=0.5;entryY=1;entryDx=0;entryDy=0;" parent="1" source="qfL54Y1ILqcxZ4xktZsr-3" target="qfL54Y1ILqcxZ4xktZsr-1" edge="1">
          <mxGeometry relative="1" as="geometry">
            <Array as="points">
              <mxPoint x="-80" y="480" />
              <mxPoint x="420" y="480" />
            </Array>
          </mxGeometry>
        </mxCell>
        <mxCell id="qfL54Y1ILqcxZ4xktZsr-3" value="FireUp" style="rounded=0;whiteSpace=wrap;html=1;" parent="1" vertex="1">
          <mxGeometry x="-140" y="370" width="120" height="60" as="geometry" />
        </mxCell>
        <mxCell id="qfL54Y1ILqcxZ4xktZsr-10" style="edgeStyle=orthogonalEdgeStyle;rounded=0;orthogonalLoop=1;jettySize=auto;html=1;" parent="1" source="qfL54Y1ILqcxZ4xktZsr-4" target="qfL54Y1ILqcxZ4xktZsr-5" edge="1">
          <mxGeometry relative="1" as="geometry" />
        </mxCell>
        <mxCell id="qfL54Y1ILqcxZ4xktZsr-4" value="StartFireDown" style="rounded=0;whiteSpace=wrap;html=1;" parent="1" vertex="1">
          <mxGeometry x="600" y="370" width="120" height="60" as="geometry" />
        </mxCell>
        <mxCell id="qfL54Y1ILqcxZ4xktZsr-11" style="edgeStyle=orthogonalEdgeStyle;rounded=0;orthogonalLoop=1;jettySize=auto;html=1;entryX=0.5;entryY=1;entryDx=0;entryDy=0;" parent="1" source="qfL54Y1ILqcxZ4xktZsr-5" target="qfL54Y1ILqcxZ4xktZsr-1" edge="1">
          <mxGeometry relative="1" as="geometry">
            <Array as="points">
              <mxPoint x="900" y="480" />
              <mxPoint x="420" y="480" />
            </Array>
          </mxGeometry>
        </mxCell>
        <mxCell id="c89TbFnsv6bFbE6O-OHV-1" value="Loop Finished" style="edgeLabel;html=1;align=center;verticalAlign=middle;resizable=0;points=[];" vertex="1" connectable="0" parent="qfL54Y1ILqcxZ4xktZsr-11">
          <mxGeometry x="0.8241" y="1" relative="1" as="geometry">
            <mxPoint as="offset" />
          </mxGeometry>
        </mxCell>
        <mxCell id="qfL54Y1ILqcxZ4xktZsr-5" value="FireDown" style="rounded=0;whiteSpace=wrap;html=1;" parent="1" vertex="1">
          <mxGeometry x="840" y="370" width="120" height="60" as="geometry" />
        </mxCell>
        <mxCell id="qfL54Y1ILqcxZ4xktZsr-15" value="&lt;div&gt;If boss at&lt;/div&gt;&lt;div&gt;&amp;nbsp;right pos&lt;/div&gt;" style="edgeLabel;html=1;align=center;verticalAlign=middle;resizable=0;points=[];" parent="1" vertex="1" connectable="0">
          <mxGeometry x="780" y="400" as="geometry" />
        </mxCell>
        <mxCell id="qfL54Y1ILqcxZ4xktZsr-17" value="&lt;div&gt;if&lt;/div&gt;&lt;div&gt;math.random == 2&lt;br&gt;&lt;/div&gt;" style="edgeLabel;html=1;align=center;verticalAlign=middle;resizable=0;points=[];" parent="1" vertex="1" connectable="0">
          <mxGeometry x="390" y="400" as="geometry">
            <mxPoint x="143" y="-5" as="offset" />
          </mxGeometry>
        </mxCell>
        <mxCell id="aih6IESTXk3G10kJZKyZ-4" style="edgeStyle=orthogonalEdgeStyle;rounded=0;orthogonalLoop=1;jettySize=auto;html=1;entryX=0.5;entryY=1;entryDx=0;entryDy=0;" parent="1" source="aih6IESTXk3G10kJZKyZ-1" target="aih6IESTXk3G10kJZKyZ-3" edge="1">
          <mxGeometry relative="1" as="geometry" />
        </mxCell>
        <mxCell id="aih6IESTXk3G10kJZKyZ-7" value="&lt;div&gt;If boss at&lt;/div&gt;&lt;div&gt;&amp;nbsp;right pos&lt;/div&gt;" style="edgeLabel;html=1;align=center;verticalAlign=middle;resizable=0;points=[];" parent="aih6IESTXk3G10kJZKyZ-4" vertex="1" connectable="0">
          <mxGeometry x="-0.0667" y="-2" relative="1" as="geometry">
            <mxPoint as="offset" />
          </mxGeometry>
        </mxCell>
        <mxCell id="aih6IESTXk3G10kJZKyZ-1" value="StartFireCenter" style="rounded=0;whiteSpace=wrap;html=1;" parent="1" vertex="1">
          <mxGeometry x="360" y="260" width="120" height="60" as="geometry" />
        </mxCell>
        <mxCell id="aih6IESTXk3G10kJZKyZ-8" style="edgeStyle=orthogonalEdgeStyle;rounded=0;orthogonalLoop=1;jettySize=auto;html=1;entryX=1;entryY=0.25;entryDx=0;entryDy=0;" parent="1" source="aih6IESTXk3G10kJZKyZ-3" target="qfL54Y1ILqcxZ4xktZsr-1" edge="1">
          <mxGeometry relative="1" as="geometry">
            <Array as="points">
              <mxPoint x="530" y="170" />
              <mxPoint x="530" y="385" />
            </Array>
          </mxGeometry>
        </mxCell>
        <mxCell id="aih6IESTXk3G10kJZKyZ-3" value="FireCenter" style="rounded=0;whiteSpace=wrap;html=1;" parent="1" vertex="1">
          <mxGeometry x="360" y="140" width="120" height="60" as="geometry" />
        </mxCell>
        <mxCell id="c89TbFnsv6bFbE6O-OHV-2" value="Loop Finished" style="edgeLabel;html=1;align=center;verticalAlign=middle;resizable=0;points=[];" vertex="1" connectable="0" parent="1">
          <mxGeometry x="450" y="491" as="geometry">
            <mxPoint x="79" y="-222" as="offset" />
          </mxGeometry>
        </mxCell>
      </root>
    </mxGraphModel>
  </diagram>
</mxfile>
